<mxfile host="app.diagrams.net" modified="2024-01-01T23:57:27.288Z" agent="Mozilla/5.0 (Windows NT 10.0; Win64; x64) AppleWebKit/537.36 (KHTML, like Gecko) Chrome/120.0.0.0 Safari/537.36" etag="fEANnOP9Q6RYely4Fxs4" version="22.1.16" type="device">
  <diagram id="C5RBs43oDa-KdzZeNtuy" name="Page-1">
    <mxGraphModel dx="1036" dy="654" grid="1" gridSize="10" guides="1" tooltips="1" connect="1" arrows="1" fold="1" page="1" pageScale="1" pageWidth="827" pageHeight="1169" math="0" shadow="0">
      <root>
        <mxCell id="WIyWlLk6GJQsqaUBKTNV-0" />
        <mxCell id="WIyWlLk6GJQsqaUBKTNV-1" parent="WIyWlLk6GJQsqaUBKTNV-0" />
        <mxCell id="kL_lNCPsr_ldP3vdLlGN-14" style="edgeStyle=none;curved=1;rounded=0;orthogonalLoop=1;jettySize=auto;html=1;exitX=1;exitY=0.5;exitDx=0;exitDy=0;entryX=0;entryY=0.5;entryDx=0;entryDy=0;fontSize=12;startSize=8;endSize=8;" edge="1" parent="WIyWlLk6GJQsqaUBKTNV-1" source="kL_lNCPsr_ldP3vdLlGN-0" target="kL_lNCPsr_ldP3vdLlGN-8">
          <mxGeometry relative="1" as="geometry" />
        </mxCell>
        <mxCell id="kL_lNCPsr_ldP3vdLlGN-0" value="Spout" style="rounded=0;whiteSpace=wrap;html=1;fontSize=16;" vertex="1" parent="WIyWlLk6GJQsqaUBKTNV-1">
          <mxGeometry x="270" y="220" width="90" height="40" as="geometry" />
        </mxCell>
        <mxCell id="kL_lNCPsr_ldP3vdLlGN-12" style="edgeStyle=none;curved=1;rounded=0;orthogonalLoop=1;jettySize=auto;html=1;exitX=1;exitY=0.25;exitDx=0;exitDy=0;entryX=0;entryY=0.5;entryDx=0;entryDy=0;fontSize=12;startSize=8;endSize=8;" edge="1" parent="WIyWlLk6GJQsqaUBKTNV-1" source="kL_lNCPsr_ldP3vdLlGN-1" target="kL_lNCPsr_ldP3vdLlGN-9">
          <mxGeometry relative="1" as="geometry" />
        </mxCell>
        <mxCell id="kL_lNCPsr_ldP3vdLlGN-13" style="edgeStyle=none;curved=1;rounded=0;orthogonalLoop=1;jettySize=auto;html=1;exitX=1;exitY=0.75;exitDx=0;exitDy=0;entryX=0;entryY=0.5;entryDx=0;entryDy=0;fontSize=12;startSize=8;endSize=8;" edge="1" parent="WIyWlLk6GJQsqaUBKTNV-1" source="kL_lNCPsr_ldP3vdLlGN-1" target="kL_lNCPsr_ldP3vdLlGN-10">
          <mxGeometry relative="1" as="geometry" />
        </mxCell>
        <mxCell id="kL_lNCPsr_ldP3vdLlGN-1" value="Spout" style="rounded=0;whiteSpace=wrap;html=1;fontSize=16;" vertex="1" parent="WIyWlLk6GJQsqaUBKTNV-1">
          <mxGeometry x="270" y="350" width="90" height="40" as="geometry" />
        </mxCell>
        <mxCell id="kL_lNCPsr_ldP3vdLlGN-2" value="Data Source" style="shape=cylinder3;whiteSpace=wrap;html=1;boundedLbl=1;backgroundOutline=1;size=15;fontSize=16;" vertex="1" parent="WIyWlLk6GJQsqaUBKTNV-1">
          <mxGeometry x="140" y="200" width="60" height="80" as="geometry" />
        </mxCell>
        <mxCell id="kL_lNCPsr_ldP3vdLlGN-3" value="Data Source" style="shape=cylinder3;whiteSpace=wrap;html=1;boundedLbl=1;backgroundOutline=1;size=15;fontSize=16;" vertex="1" parent="WIyWlLk6GJQsqaUBKTNV-1">
          <mxGeometry x="140" y="330" width="60" height="80" as="geometry" />
        </mxCell>
        <mxCell id="kL_lNCPsr_ldP3vdLlGN-5" value="" style="endArrow=classic;html=1;rounded=0;fontSize=12;startSize=8;endSize=8;curved=1;exitX=1;exitY=0.5;exitDx=0;exitDy=0;exitPerimeter=0;entryX=0;entryY=0.5;entryDx=0;entryDy=0;" edge="1" parent="WIyWlLk6GJQsqaUBKTNV-1" source="kL_lNCPsr_ldP3vdLlGN-2" target="kL_lNCPsr_ldP3vdLlGN-0">
          <mxGeometry width="50" height="50" relative="1" as="geometry">
            <mxPoint x="400" y="360" as="sourcePoint" />
            <mxPoint x="450" y="310" as="targetPoint" />
          </mxGeometry>
        </mxCell>
        <mxCell id="kL_lNCPsr_ldP3vdLlGN-6" value="" style="endArrow=classic;html=1;rounded=0;fontSize=12;startSize=8;endSize=8;curved=1;exitX=1;exitY=0.5;exitDx=0;exitDy=0;exitPerimeter=0;entryX=0;entryY=0.5;entryDx=0;entryDy=0;" edge="1" parent="WIyWlLk6GJQsqaUBKTNV-1">
          <mxGeometry width="50" height="50" relative="1" as="geometry">
            <mxPoint x="200" y="369.5" as="sourcePoint" />
            <mxPoint x="270" y="369.5" as="targetPoint" />
          </mxGeometry>
        </mxCell>
        <mxCell id="kL_lNCPsr_ldP3vdLlGN-7" value="Supervisor" style="swimlane;whiteSpace=wrap;html=1;fontSize=16;" vertex="1" parent="WIyWlLk6GJQsqaUBKTNV-1">
          <mxGeometry x="240" y="110" width="420" height="370" as="geometry" />
        </mxCell>
        <mxCell id="kL_lNCPsr_ldP3vdLlGN-15" style="edgeStyle=none;curved=1;rounded=0;orthogonalLoop=1;jettySize=auto;html=1;exitX=1;exitY=0.5;exitDx=0;exitDy=0;entryX=0;entryY=0.5;entryDx=0;entryDy=0;fontSize=12;startSize=8;endSize=8;" edge="1" parent="kL_lNCPsr_ldP3vdLlGN-7" source="kL_lNCPsr_ldP3vdLlGN-8" target="kL_lNCPsr_ldP3vdLlGN-11">
          <mxGeometry relative="1" as="geometry" />
        </mxCell>
        <mxCell id="kL_lNCPsr_ldP3vdLlGN-20" style="edgeStyle=none;curved=1;rounded=0;orthogonalLoop=1;jettySize=auto;html=1;exitX=0.5;exitY=1;exitDx=0;exitDy=0;fontSize=12;startSize=8;endSize=8;" edge="1" parent="kL_lNCPsr_ldP3vdLlGN-7" source="kL_lNCPsr_ldP3vdLlGN-8" target="kL_lNCPsr_ldP3vdLlGN-9">
          <mxGeometry relative="1" as="geometry" />
        </mxCell>
        <mxCell id="kL_lNCPsr_ldP3vdLlGN-8" value="Bolt" style="rounded=1;whiteSpace=wrap;html=1;fontSize=16;" vertex="1" parent="kL_lNCPsr_ldP3vdLlGN-7">
          <mxGeometry x="180" y="60" width="60" height="50" as="geometry" />
        </mxCell>
        <mxCell id="kL_lNCPsr_ldP3vdLlGN-16" style="edgeStyle=none;curved=1;rounded=0;orthogonalLoop=1;jettySize=auto;html=1;exitX=1;exitY=0.5;exitDx=0;exitDy=0;fontSize=12;startSize=8;endSize=8;" edge="1" parent="kL_lNCPsr_ldP3vdLlGN-7" source="kL_lNCPsr_ldP3vdLlGN-9">
          <mxGeometry relative="1" as="geometry">
            <mxPoint x="310" y="195" as="targetPoint" />
          </mxGeometry>
        </mxCell>
        <mxCell id="kL_lNCPsr_ldP3vdLlGN-9" value="Bolt" style="rounded=1;whiteSpace=wrap;html=1;fontSize=16;" vertex="1" parent="kL_lNCPsr_ldP3vdLlGN-7">
          <mxGeometry x="180" y="170" width="60" height="50" as="geometry" />
        </mxCell>
        <mxCell id="kL_lNCPsr_ldP3vdLlGN-17" style="edgeStyle=none;curved=1;rounded=0;orthogonalLoop=1;jettySize=auto;html=1;exitX=1;exitY=0.5;exitDx=0;exitDy=0;entryX=0;entryY=0.5;entryDx=0;entryDy=0;fontSize=12;startSize=8;endSize=8;" edge="1" parent="kL_lNCPsr_ldP3vdLlGN-7" source="kL_lNCPsr_ldP3vdLlGN-10" target="kL_lNCPsr_ldP3vdLlGN-11">
          <mxGeometry relative="1" as="geometry" />
        </mxCell>
        <mxCell id="kL_lNCPsr_ldP3vdLlGN-10" value="Bolt" style="rounded=1;whiteSpace=wrap;html=1;fontSize=16;" vertex="1" parent="kL_lNCPsr_ldP3vdLlGN-7">
          <mxGeometry x="180" y="270" width="60" height="50" as="geometry" />
        </mxCell>
        <mxCell id="kL_lNCPsr_ldP3vdLlGN-11" value="Bolt" style="rounded=1;whiteSpace=wrap;html=1;fontSize=16;" vertex="1" parent="kL_lNCPsr_ldP3vdLlGN-7">
          <mxGeometry x="310" y="170" width="60" height="50" as="geometry" />
        </mxCell>
        <mxCell id="kL_lNCPsr_ldP3vdLlGN-18" value="&lt;br&gt;Target&lt;br&gt;Destination" style="shape=note;whiteSpace=wrap;html=1;backgroundOutline=1;darkOpacity=0.05;fontSize=16;" vertex="1" parent="WIyWlLk6GJQsqaUBKTNV-1">
          <mxGeometry x="700" y="265" width="100" height="80" as="geometry" />
        </mxCell>
        <mxCell id="kL_lNCPsr_ldP3vdLlGN-19" style="edgeStyle=none;curved=1;rounded=0;orthogonalLoop=1;jettySize=auto;html=1;exitX=1;exitY=0.5;exitDx=0;exitDy=0;entryX=0;entryY=0.5;entryDx=0;entryDy=0;entryPerimeter=0;fontSize=12;startSize=8;endSize=8;" edge="1" parent="WIyWlLk6GJQsqaUBKTNV-1" source="kL_lNCPsr_ldP3vdLlGN-11" target="kL_lNCPsr_ldP3vdLlGN-18">
          <mxGeometry relative="1" as="geometry" />
        </mxCell>
      </root>
    </mxGraphModel>
  </diagram>
</mxfile>
